<svg width="30" height="30" viewBox="0 0 30 30" fill="none" xmlns="http://www.w3.org/2000/svg">
<rect width="30" height="30" rx="15" fill="url(#paint0_linear_1_42)"/>
<path fill-rule="evenodd" clip-rule="evenodd" d="M11.6447 22.5C12.353 22.5 12.9742 21.9995 13.3224 21.2477C13.6706 21.9995 14.2917 22.5 15 22.5C15.6456 22.5 16.2189 22.0841 16.5789 21.4411C16.939 22.0841 17.5123 22.5 18.1579 22.5C19.2479 22.5 20.1316 21.3145 20.1316 19.8521C20.1316 19.564 20.0973 19.2866 20.0338 19.0268C21.5485 17.8156 22.5 16.0657 22.5 14.1196C22.5 10.4637 19.1421 7.5 15 7.5C10.8579 7.5 7.5 10.4637 7.5 14.1196C7.5 15.9955 8.384 17.689 9.80436 18.8936C9.71828 19.1908 9.67105 19.5141 9.67105 19.8521C9.67105 21.3145 10.5547 22.5 11.6447 22.5ZM14.9013 17.6117C17.3539 17.6117 19.3421 16.107 19.3421 14.2509C19.3421 12.3948 17.3539 10.8902 14.9013 10.8902C12.4487 10.8902 10.4605 12.3948 10.4605 14.2509C10.4605 16.107 12.4487 17.6117 14.9013 17.6117Z" fill="white"/>
<defs>
<linearGradient id="paint0_linear_1_42" x1="0" y1="0" x2="0" y2="30" gradientUnits="userSpaceOnUse">
<stop stop-color="#A864C7"/>
<stop offset="1" stop-color="#C261D4"/>
</linearGradient>
</defs>
</svg>
